# xmcd
#
# Track frame offsets: 
#        150
#        28095
#        55026
#        83620
#        116620
#        148291
#        178894
#        216877
#        247149
#
# Disc length: 3492 seconds
#
# Revision: 1
# Processed by: cddbd v1.5.2PL0 Copyright (c) Steve Scherf et al.
# Submitted via: ExactAudioCopy v1.0b1
#
DISCID=840da209
DTITLE=Kasper Villaume Quartet - #2
DYEAR=2003
DGENRE=Jazz
TTITLE0=Bubbles
TTITLE1=All the things you are
TTITLE2=Quartet #2
TTITLE3=I Wish I Knew
TTITLE4=My Man's Gone Now
TTITLE5=The Speedmaster
TTITLE6=Villaumenizer
TTITLE7=Song
TTITLE8=Blame It On My Youth
EXTD=YEAR: 2003
EXTT0=
EXTT1=
EXTT2=
EXTT3=
EXTT4=
EXTT5=
EXTT6=
EXTT7=
EXTT8=
PLAYORDER=
